<!-- Generated by IcoMoon.io -->
<svg version="1.1" xmlns="http://www.w3.org/2000/svg" width="24" height="24" viewBox="0 0 24 24">
<title>coin</title>
<path d="M22.424 8.306c0.029-0.127 0.044-0.258 0.044-0.391v-3.064c0-2.653-5.788-4.085-11.234-4.085s-11.234 1.432-11.234 4.085c0 0.114 0.011 0.226 0.033 0.336-0.020 0.055-0.033 0.113-0.033 0.174v2.553c0 0.849 0.593 1.572 1.577 2.164-0.029 0.129-0.045 0.259-0.045 0.389 0 0.114 0.011 0.226 0.033 0.336-0.020 0.055-0.033 0.113-0.033 0.174v2.553c0 0.234 0.046 0.459 0.132 0.674-0.942 0.698-1.153 1.397-1.153 1.879 0 0.114 0.011 0.226 0.033 0.336-0.020 0.055-0.033 0.113-0.033 0.174v2.553c0 2.653 5.788 4.085 11.234 4.085s11.234-1.432 11.234-4.085v-3.064c0-0.227-0.045-0.451-0.133-0.669 0.728-0.535 1.154-1.165 1.154-1.884v-3.064c0-0.562-0.282-1.379-1.576-2.162zM3.813 2.808c1.975-0.658 4.61-1.021 7.421-1.021s5.446 0.363 7.421 1.021c1.748 0.583 2.792 1.346 2.792 2.043s-1.044 1.46-2.792 2.043c-1.975 0.658-4.61 1.021-7.421 1.021s-5.447-0.363-7.421-1.021c-1.748-0.583-2.792-1.346-2.792-2.043s1.044-1.46 2.792-2.043zM21.447 6.634v1.281c0 0.59-0.751 1.228-2.043 1.764v-1.967c0.823-0.305 1.521-0.664 2.043-1.078zM18.383 8.044v2.001c-0.625 0.194-1.311 0.36-2.043 0.496v-2.032c0.72-0.127 1.406-0.282 2.043-0.464zM15.319 8.666v2.040c-0.655 0.092-1.339 0.161-2.043 0.207v-2.044c0.692-0.045 1.377-0.113 2.043-0.203zM12.255 8.92v2.043c-0.337 0.011-0.678 0.016-1.021 0.016s-0.684-0.006-1.021-0.016v-2.043c0.341 0.011 0.682 0.017 1.021 0.017s0.68-0.006 1.021-0.017zM9.191 8.87v2.044c-0.704-0.046-1.387-0.115-2.043-0.207v-2.040c0.666 0.090 1.351 0.158 2.043 0.203zM6.128 8.508v2.032c-0.732-0.136-1.417-0.301-2.043-0.496v-2.001c0.636 0.182 1.323 0.337 2.043 0.464zM1.021 7.915v-1.281c0.521 0.413 1.219 0.773 2.043 1.078v1.967c-1.292-0.536-2.043-1.173-2.043-1.764zM2.553 12.25c0.521 0.413 1.219 0.773 2.043 1.078v1.967c-1.291-0.536-2.043-1.173-2.043-1.764v-1.281zM3.574 20.913c-1.292-0.536-2.043-1.173-2.043-1.764v-1.281c0.521 0.413 1.219 0.773 2.043 1.078v1.967zM6.638 21.774c-0.732-0.136-1.417-0.301-2.043-0.496v-2.001c0.636 0.182 1.323 0.337 2.043 0.464v2.032zM9.702 22.147c-0.704-0.046-1.387-0.115-2.043-0.207v-2.040c0.666 0.090 1.351 0.158 2.043 0.203v2.044zM12.766 22.196c-0.337 0.011-0.678 0.016-1.021 0.016s-0.684-0.006-1.021-0.016v-2.043c0.341 0.011 0.682 0.017 1.021 0.017s0.68-0.006 1.021-0.017v2.043zM15.83 21.94c-0.655 0.092-1.339 0.161-2.043 0.207v-2.044c0.692-0.045 1.377-0.113 2.043-0.203v2.040zM18.894 21.278c-0.625 0.194-1.311 0.36-2.043 0.496v-2.033c0.72-0.127 1.406-0.282 2.043-0.464v2.001zM21.957 19.149c0 0.59-0.751 1.228-2.043 1.764v-1.967c0.823-0.305 1.521-0.664 2.043-1.078v1.281zM19.166 18.128c-1.975 0.658-4.61 1.021-7.421 1.021s-5.446-0.363-7.421-1.021c-1.748-0.583-2.792-1.346-2.792-2.043 0-0.4 0.346-0.765 0.714-1.041 1.71 1.681 6.221 2.573 10.52 2.573 3.438 0 7.011-0.571 9.179-1.659 0.008 0.042 0.012 0.085 0.012 0.127-0 0.697-1.044 1.46-2.792 2.043zM5.617 15.661v-2.001c0.636 0.182 1.323 0.337 2.043 0.464v2.033c-0.732-0.136-1.417-0.302-2.043-0.496zM8.681 16.323v-2.040c0.666 0.090 1.351 0.158 2.043 0.203v2.044c-0.704-0.046-1.387-0.115-2.043-0.207zM11.745 16.579v-2.043c0.341 0.011 0.682 0.017 1.021 0.017s0.68-0.006 1.021-0.017v2.043c-0.337 0.011-0.678 0.016-1.021 0.016s-0.684-0.006-1.021-0.016zM14.809 16.53v-2.044c0.692-0.045 1.377-0.113 2.043-0.203v2.040c-0.655 0.092-1.339 0.161-2.043 0.207zM17.872 16.157v-2.033c0.72-0.127 1.406-0.282 2.043-0.464v2.001c-0.625 0.194-1.311 0.36-2.043 0.496zM22.979 13.532c0 0.59-0.751 1.228-2.043 1.764v-1.967c0.823-0.305 1.521-0.664 2.043-1.078v1.281zM20.187 12.511c-1.975 0.658-4.61 1.021-7.421 1.021s-5.447-0.362-7.421-1.021c-1.658-0.553-2.681-1.268-2.782-1.935 2.193 0.935 5.49 1.424 8.671 1.424 4.477 0 9.183-0.968 10.718-2.786 0.665 0.413 1.027 0.852 1.027 1.254 0 0.697-1.044 1.46-2.792 2.043z"></path>
</svg>
