<!-- Generated by IcoMoon.io -->
<svg version="1.1" xmlns="http://www.w3.org/2000/svg" width="24" height="24" viewBox="0 0 24 24">
<title>moon-svgrepo-com</title>
<path d="M0.188 11.933c0 6.48 5.411 11.88 12.174 11.88 5.14 0 9.604-2.835 11.362-7.155 0.135-0.405 0.135-0.81-0.135-1.080s-0.676-0.405-1.082-0.27c-0.676 0.135-1.353 0.27-1.894 0.27-5.411 0-9.739-4.185-9.739-9.45 0-1.62 0.271-2.97 1.082-4.59 0.135-0.27 0.135-0.675-0.135-0.945s-0.541-0.405-0.947-0.405c-6.087 0.675-10.686 5.805-10.686 11.745z"></path>
</svg>
