<!-- Generated by IcoMoon.io -->
<svg version="1.1" xmlns="http://www.w3.org/2000/svg" width="24" height="24" viewBox="0 0 24 24">
<title>recycle-bin</title>
<path d="M18.406 5.989h-12.812c-0.664 0-1.302 0.28-1.751 0.769s-0.675 1.148-0.62 1.809l1.11 13.232c0.050 0.596 0.32 1.147 0.76 1.552s1.012 0.628 1.61 0.628h10.592c0.598 0 1.17-0.223 1.61-0.628s0.71-0.956 0.76-1.552l1.11-13.232c0.055-0.661-0.17-1.321-0.62-1.809s-1.087-0.769-1.751-0.769zM19.037 8.421l-1.11 13.232c-0.028 0.328-0.302 0.581-0.631 0.581h-10.592c-0.329 0-0.604-0.252-0.631-0.581l-1.11-13.232c-0.031-0.369 0.26-0.686 0.631-0.686h12.812c0.371 0 0.662 0.317 0.631 0.686z"></path>
<path d="M17.296 24h-10.592c-0.603 0-1.18-0.225-1.624-0.633s-0.716-0.964-0.767-1.566l-1.11-13.232c-0.056-0.667 0.172-1.332 0.625-1.825s1.097-0.775 1.766-0.775h12.812c0.669 0 1.313 0.283 1.766 0.775s0.681 1.158 0.625 1.825l-1.11 13.232c-0.050 0.601-0.323 1.157-0.767 1.566s-1.021 0.633-1.624 0.633zM5.594 6.010c-0.658 0-1.291 0.278-1.736 0.762s-0.669 1.138-0.614 1.794l1.11 13.232c0.050 0.591 0.317 1.138 0.754 1.539s1.004 0.623 1.597 0.623h10.592c0.593 0 1.16-0.221 1.597-0.623s0.704-0.948 0.754-1.539l1.11-13.232c0.055-0.656-0.169-1.309-0.614-1.794s-1.078-0.762-1.736-0.762h-12.812zM17.296 22.254h-10.592c-0.337 0-0.623-0.263-0.652-0.599l-1.11-13.232c-0.015-0.182 0.047-0.363 0.17-0.497s0.299-0.211 0.481-0.211h12.812c0.182 0 0.358 0.077 0.481 0.211s0.186 0.315 0.17 0.497l-1.11 13.232c-0.028 0.336-0.314 0.599-0.652 0.599zM5.594 7.755c-0.171 0-0.336 0.072-0.451 0.198s-0.174 0.296-0.16 0.466l1.11 13.232c0.026 0.315 0.295 0.562 0.611 0.562h10.592c0.316 0 0.585-0.247 0.611-0.562l1.11-13.232c0.014-0.17-0.044-0.34-0.16-0.466s-0.28-0.198-0.451-0.198h-12.812z"></path>
<path d="M3.638 5.046h16.723c0.482 0 0.873-0.391 0.873-0.873s-0.391-0.873-0.873-0.873h-3.17v-0.901c0-1.312-1.067-2.379-2.379-2.379h-5.625c-1.312 0-2.379 1.067-2.379 2.379v0.901h-3.17c-0.482 0-0.873 0.391-0.873 0.873s0.391 0.873 0.873 0.873zM8.554 2.399c0-0.35 0.284-0.633 0.633-0.633h5.625c0.35 0 0.633 0.284 0.633 0.633v0.862h-6.892v-0.862z"></path>
<path d="M20.362 5.066h-16.723c-0.493 0-0.893-0.401-0.893-0.893s0.401-0.893 0.893-0.893h3.15v-0.881c0-1.323 1.076-2.399 2.399-2.399h5.625c1.323 0 2.399 1.076 2.399 2.399v0.881h3.15c0.493 0 0.893 0.401 0.893 0.893s-0.401 0.893-0.893 0.893zM3.638 3.321c-0.47 0-0.852 0.382-0.852 0.852s0.382 0.852 0.852 0.852h16.723c0.47 0 0.852-0.382 0.852-0.852s-0.382-0.852-0.852-0.852h-3.19v-0.921c0-1.301-1.058-2.359-2.359-2.359h-5.625c-1.301 0-2.359 1.058-2.359 2.359v0.921h-3.19zM15.466 3.281h-6.933v-0.882c0-0.361 0.293-0.654 0.654-0.654h5.625c0.361 0 0.654 0.293 0.654 0.654v0.882zM8.574 3.241h6.851v-0.841c0-0.338-0.275-0.613-0.613-0.613h-5.625c-0.338 0-0.613 0.275-0.613 0.613v0.841z"></path>
<path d="M8.918 11.093c-0.032-0.481-0.448-0.845-0.928-0.813s-0.845 0.447-0.813 0.928l0.507 7.668c0.030 0.461 0.414 0.815 0.87 0.815 0.019 0 0.039-0.001 0.058-0.002 0.481-0.032 0.845-0.447 0.813-0.928l-0.507-7.668z"></path>
<path d="M8.553 19.712c-0.468 0-0.859-0.366-0.89-0.834l-0.507-7.668c-0.016-0.238 0.062-0.468 0.219-0.647s0.375-0.287 0.613-0.303c0.495-0.032 0.918 0.345 0.95 0.832l0.507 7.668c0.032 0.491-0.341 0.918-0.832 0.95-0.020 0.001-0.040 0.002-0.060 0.002zM8.048 10.298c-0.019 0-0.038 0.001-0.057 0.002-0.227 0.015-0.435 0.118-0.585 0.289s-0.224 0.391-0.209 0.618l0.507 7.668c0.031 0.465 0.436 0.825 0.907 0.794 0.469-0.031 0.825-0.438 0.794-0.907l-0.507-7.668c-0.030-0.446-0.403-0.796-0.85-0.796z"></path>
<path d="M12 10.277c-0.482 0-0.873 0.391-0.873 0.873v7.668c0 0.482 0.391 0.873 0.873 0.873s0.873-0.391 0.873-0.873v-7.668c0-0.482-0.391-0.873-0.873-0.873z"></path>
<path d="M12 19.712c-0.493 0-0.893-0.401-0.893-0.893v-7.668c0-0.493 0.401-0.893 0.893-0.893s0.893 0.401 0.893 0.893v7.668c0 0.493-0.401 0.893-0.893 0.893zM12 10.298c-0.47 0-0.852 0.382-0.852 0.852v7.668c0 0.47 0.382 0.852 0.852 0.852s0.852-0.382 0.852-0.852v-7.668c0-0.47-0.382-0.852-0.852-0.852z"></path>
<path d="M16.010 10.279c-0.481-0.032-0.897 0.332-0.928 0.813l-0.507 7.668c-0.032 0.481 0.332 0.897 0.813 0.928 0.020 0.001 0.039 0.002 0.058 0.002 0.456 0 0.84-0.354 0.87-0.815l0.507-7.668c0.032-0.481-0.332-0.897-0.813-0.928z"></path>
<path d="M15.447 19.712c-0.020 0-0.040-0.001-0.060-0.002-0.491-0.032-0.865-0.459-0.832-0.95l0.507-7.668c0.032-0.488 0.456-0.865 0.95-0.832 0.238 0.016 0.456 0.123 0.613 0.303s0.235 0.409 0.219 0.647l-0.507 7.668c-0.031 0.468-0.422 0.834-0.89 0.834zM15.952 10.298c-0.447 0-0.82 0.35-0.85 0.796l-0.507 7.668c-0.031 0.469 0.325 0.876 0.794 0.907 0.473 0.031 0.876-0.329 0.907-0.794l0.507-7.668c0.015-0.227-0.059-0.447-0.209-0.618s-0.358-0.274-0.585-0.289c-0.019-0.001-0.038-0.002-0.057-0.002z"></path>
</svg>
