<!-- Generated by IcoMoon.io -->
<svg version="1.1" xmlns="http://www.w3.org/2000/svg" width="24" height="24" viewBox="0 0 24 24">
<title>sun-svgrepo-com</title>
<path d="M17.302 12c0 2.928-2.374 5.302-5.302 5.302s-5.302-2.374-5.302-5.302c0-2.928 2.374-5.302 5.302-5.302s5.302 2.374 5.302 5.302z"></path>
<path d="M12 18.169c-3.402 0-6.169-2.767-6.169-6.169s2.767-6.169 6.169-6.169 6.169 2.767 6.169 6.169-2.767 6.169-6.169 6.169zM12 7.565c-2.445 0-4.435 1.99-4.435 4.435s1.99 4.435 4.435 4.435 4.435-1.99 4.435-4.435-1.99-4.435-4.435-4.435z"></path>
<path d="M12 4.553c-0.479 0-0.867-0.388-0.867-0.867v-2.819c0-0.479 0.388-0.867 0.867-0.867s0.867 0.388 0.867 0.867v2.819c0 0.479-0.388 0.867-0.867 0.867z"></path>
<path d="M12 24c-0.479 0-0.867-0.388-0.867-0.867v-2.819c0-0.479 0.388-0.867 0.867-0.867s0.867 0.388 0.867 0.867v2.819c0 0.479-0.388 0.867-0.867 0.867z"></path>
<path d="M23.133 12.867h-2.819c-0.479 0-0.867-0.388-0.867-0.867s0.388-0.867 0.867-0.867h2.819c0.479 0 0.867 0.388 0.867 0.867s-0.388 0.867-0.867 0.867z"></path>
<path d="M3.686 12.867h-2.819c-0.479 0-0.867-0.388-0.867-0.867s0.388-0.867 0.867-0.867h2.819c0.479 0 0.867 0.388 0.867 0.867s-0.388 0.867-0.867 0.867z"></path>
<path d="M17.879 6.988c-0.222 0-0.444-0.085-0.613-0.254-0.339-0.339-0.339-0.888 0-1.226l1.993-1.993c0.339-0.339 0.888-0.339 1.226 0s0.339 0.888 0 1.226l-1.993 1.993c-0.169 0.169-0.391 0.254-0.613 0.254z"></path>
<path d="M4.128 20.739c-0.222 0-0.444-0.085-0.613-0.254-0.339-0.339-0.339-0.888 0-1.226l1.993-1.993c0.339-0.339 0.888-0.339 1.226 0s0.339 0.888 0 1.226l-1.993 1.993c-0.169 0.169-0.391 0.254-0.613 0.254z"></path>
<path d="M19.872 20.739c-0.222 0-0.444-0.085-0.613-0.254l-1.993-1.993c-0.339-0.339-0.339-0.888 0-1.226s0.888-0.339 1.226 0l1.993 1.993c0.339 0.339 0.339 0.888 0 1.226-0.169 0.169-0.391 0.254-0.613 0.254z"></path>
<path d="M6.121 6.988c-0.222 0-0.444-0.085-0.613-0.254l-1.993-1.993c-0.339-0.339-0.339-0.887 0-1.226s0.888-0.339 1.226 0l1.993 1.993c0.339 0.339 0.339 0.887 0 1.226-0.169 0.169-0.391 0.254-0.613 0.254z"></path>
</svg>
