<!-- Generated by IcoMoon.io -->
<svg version="1.1" xmlns="http://www.w3.org/2000/svg" width="24" height="24" viewBox="0 0 24 24">
<title>visibility-on</title>
<path d="M14.828 9.172c-0.195-0.195-0.512-0.195-0.707 0s-0.195 0.513 0 0.707c0.566 0.566 0.879 1.319 0.879 2.121 0 1.654-1.346 3-3 3-0.802 0-1.555-0.312-2.121-0.879-0.195-0.195-0.512-0.195-0.707 0s-0.195 0.512 0 0.707c0.754 0.756 1.759 1.172 2.828 1.172 2.206 0 4-1.794 4-4 0-1.069-0.416-2.074-1.172-2.828z"></path>
<path d="M12.697 8.069c-0.227-0.040-0.459-0.069-0.697-0.069-2.206 0-4 1.794-4 4 0 0.238 0.029 0.47 0.070 0.697 0.043 0.242 0.254 0.413 0.491 0.413 0.029 0 0.058-0.002 0.088-0.008 0.271-0.048 0.453-0.308 0.405-0.579-0.031-0.17-0.054-0.343-0.054-0.523 0-1.654 1.346-3 3-3 0.18 0 0.353 0.023 0.523 0.053 0.266 0.054 0.531-0.134 0.579-0.405s-0.134-0.531-0.405-0.579z"></path>
<path d="M23.881 11.677c-0.113-0.134-2.818-3.291-6.549-5.224-0.242-0.127-0.547-0.031-0.674 0.215s-0.031 0.547 0.215 0.674c2.874 1.488 5.17 3.81 5.955 4.658-1.192 1.291-5.883 6-10.828 6-1.678 0-3.369-0.405-5.028-1.205-0.246-0.121-0.547-0.016-0.667 0.233s-0.016 0.547 0.233 0.667c1.795 0.867 3.633 1.305 5.462 1.305 6.161 0 11.651-6.404 11.882-6.677 0.158-0.186 0.157-0.459-0.001-0.646z"></path>
<path d="M15.281 5.576c-1.138-0.383-2.242-0.576-3.281-0.576-6.161 0-11.651 6.404-11.882 6.677-0.146 0.172-0.158 0.422-0.028 0.609 0.069 0.099 1.722 2.446 4.587 4.349 0.085 0.057 0.18 0.084 0.276 0.084 0.161 0 0.32-0.078 0.416-0.225 0.153-0.229 0.090-0.54-0.14-0.692-2.104-1.399-3.544-3.088-4.083-3.775 1.151-1.25 5.873-6.027 10.854-6.027 0.931 0 1.928 0.176 2.962 0.523 0.262 0.094 0.546-0.051 0.633-0.314 0.088-0.262-0.052-0.545-0.314-0.633z"></path>
<path d="M20.853 3.147c-0.195-0.195-0.512-0.195-0.707 0l-17 17c-0.195 0.195-0.195 0.512 0 0.707 0.098 0.097 0.226 0.146 0.354 0.146s0.256-0.049 0.353-0.146l17-17c0.195-0.195 0.195-0.512 0-0.707z"></path>
</svg>
