<!-- Generated by IcoMoon.io -->
<svg version="1.1" xmlns="http://www.w3.org/2000/svg" width="24" height="24" viewBox="0 0 24 24">
<title>visibility-off</title>
<path d="M23.911 11.716c-0.189-0.275-4.731-6.716-11.911-6.716-6.161 0-11.651 6.404-11.882 6.677-0.157 0.186-0.157 0.459 0 0.646 0.231 0.273 5.721 6.677 11.882 6.677s11.651-6.404 11.882-6.677c0.145-0.172 0.158-0.421 0.029-0.607zM12 18c-4.939 0-9.635-4.71-10.828-6 1.191-1.291 5.882-6 10.828-6 5.779 0 9.858 4.703 10.854 5.973-1.15 1.249-5.873 6.027-10.854 6.027z"></path>
<path d="M12 8c-2.206 0-4 1.794-4 4s1.794 4 4 4 4-1.794 4-4-1.794-4-4-4zM12 15c-1.654 0-3-1.346-3-3s1.346-3 3-3 3 1.346 3 3-1.346 3-3 3z"></path>
</svg>
